<svg xmlns="http://www.w3.org/2000/svg" xmlns:xlink="http://www.w3.org/1999/xlink" contentStyleType="text/css" data-diagram-type="CLASS" height="912px" preserveAspectRatio="none" style="width:1175px;height:912px;background:#FFFFFF;" version="1.1" viewBox="0 0 1175 912" width="1175px" zoomAndPan="magnify"><?plantuml 1.2026.3beta4?><defs/><g><!--class Position--><g class="entity" data-qualified-name="Position" data-source-line="11" id="ent0002"><rect fill="#F0F4FF" height="96.8906" rx="2.5" ry="2.5" style="stroke:#2E75B6;stroke-width:0.5;" width="267.7734" x="636.05" y="800.34"/><ellipse cx="733.6433" cy="816.34" fill="#F1F1F1" rx="11" ry="11" style="stroke:#181818;stroke-width:1;"/><path d="M733.1276,816.9025 Q731.2683,816.1994 730.612,815.4338 Q729.9714,814.6525 729.9714,813.34 Q729.9714,811.6525 731.0495,810.6838 Q732.1276,809.715 734.0026,809.715 Q734.862,809.715 735.7058,809.9181 Q736.5651,810.1056 737.4089,810.4963 L737.4089,812.8869 Q736.6276,812.3244 735.7995,812.0431 Q734.987,811.7463 734.1901,811.7463 Q733.3151,811.7463 732.8308,812.1056 Q732.362,812.465 732.362,813.1213 Q732.362,813.6369 732.7058,813.9806 Q733.0495,814.3088 734.1433,814.715 L735.2058,815.1213 Q736.6901,815.6681 737.3933,816.5744 Q738.112,817.4806 738.112,818.8556 Q738.112,820.7306 737.0026,821.6525 Q735.8933,822.5744 733.6433,822.5744 Q732.7214,822.5744 731.7995,822.3556 Q730.8776,822.1369 730.0183,821.715 L730.0183,819.1838 Q730.987,819.8713 731.9089,820.215 Q732.8308,820.5588 733.7214,820.5588 Q734.6276,820.5588 735.1276,820.1525 Q735.6276,819.7306 735.6276,818.9963 Q735.6276,818.4338 735.2839,818.0275 Q734.9558,817.6056 734.3308,817.3556 L733.1276,816.9025 Z " fill="#000000"/><text fill="#1F3864" font-family="sans-serif" font-size="14" font-weight="700" lengthAdjust="spacing" textLength="64.0869" x="754.1433" y="821.1867">Position</text><line style="stroke:#2E75B6;stroke-width:0.5;" x1="637.05" x2="902.8234" y1="832.34" y2="832.34"/><text fill="#000000" font-family="sans-serif" font-size="14" lengthAdjust="spacing" textLength="69.3711" x="642.05" y="849.3351">+row : int</text><text fill="#000000" font-family="sans-serif" font-size="14" lengthAdjust="spacing" textLength="63.752" x="642.05" y="865.632">+col : int</text><line style="stroke:#2E75B6;stroke-width:0.5;" x1="637.05" x2="902.8234" y1="872.9338" y2="872.9338"/><text fill="#000000" font-family="sans-serif" font-size="14" lengthAdjust="spacing" textLength="255.7734" x="642.05" y="889.9289">+operator==(other : Position) : bool</text></g><!--class PositionHash--><g class="entity" data-qualified-name="PositionHash" data-source-line="18" id="ent0003"><rect fill="#F0F4FF" height="64.2969" rx="2.5" ry="2.5" style="stroke:#2E75B6;stroke-width:0.5;" width="236.5537" x="923.66" y="593.86"/><ellipse cx="985.9115" cy="609.86" fill="#F1F1F1" rx="11" ry="11" style="stroke:#181818;stroke-width:1;"/><path d="M985.3958,610.4225 Q983.5365,609.7194 982.8802,608.9538 Q982.2396,608.1725 982.2396,606.86 Q982.2396,605.1725 983.3177,604.2038 Q984.3958,603.235 986.2708,603.235 Q987.1302,603.235 987.974,603.4381 Q988.8333,603.6256 989.6771,604.0163 L989.6771,606.4069 Q988.8958,605.8444 988.0677,605.5631 Q987.2552,605.2663 986.4583,605.2663 Q985.5833,605.2663 985.099,605.6256 Q984.6302,605.985 984.6302,606.6413 Q984.6302,607.1569 984.974,607.5006 Q985.3177,607.8288 986.4115,608.235 L987.474,608.6413 Q988.9583,609.1881 989.6615,610.0944 Q990.3802,611.0006 990.3802,612.3756 Q990.3802,614.2506 989.2708,615.1725 Q988.1615,616.0944 985.9115,616.0944 Q984.9896,616.0944 984.0677,615.8756 Q983.1458,615.6569 982.2865,615.235 L982.2865,612.7038 Q983.2552,613.3913 984.1771,613.735 Q985.099,614.0788 985.9896,614.0788 Q986.8958,614.0788 987.3958,613.6725 Q987.8958,613.2506 987.8958,612.5163 Q987.8958,611.9538 987.5521,611.5475 Q987.224,611.1256 986.599,610.8756 L985.3958,610.4225 Z " fill="#000000"/><text fill="#1F3864" font-family="sans-serif" font-size="14" font-weight="700" lengthAdjust="spacing" textLength="103.5508" x="1006.4115" y="614.7067">PositionHash</text><line style="stroke:#2E75B6;stroke-width:0.5;" x1="924.66" x2="1159.2137" y1="625.86" y2="625.86"/><line style="stroke:#2E75B6;stroke-width:0.5;" x1="924.66" x2="1159.2137" y1="633.86" y2="633.86"/><text fill="#000000" font-family="sans-serif" font-size="14" lengthAdjust="spacing" textLength="224.5537" x="929.66" y="650.8551">+operator()(p : Position) : size_t</text></g><!--class Grid--><g class="entity" data-qualified-name="Grid" data-source-line="23" id="ent0004"><rect fill="#F0F4FF" height="194.6719" rx="2.5" ry="2.5" style="stroke:#2E75B6;stroke-width:0.5;" width="560.1738" x="227.85" y="528.67"/><ellipse cx="487.079" cy="544.67" fill="#ADD1B2" rx="11" ry="11" style="stroke:#181818;stroke-width:1;"/><path d="M490.0478,550.3106 Q489.4696,550.6075 488.829,550.7481 Q488.1884,550.9044 487.4853,550.9044 Q484.9853,550.9044 483.6571,549.2638 Q482.3446,547.6075 482.3446,544.4825 Q482.3446,541.3575 483.6571,539.7013 Q484.9853,538.045 487.4853,538.045 Q488.1884,538.045 488.829,538.2013 Q489.4853,538.3575 490.0478,538.6544 L490.0478,541.3731 Q489.4228,540.795 488.829,540.5294 Q488.2353,540.2481 487.6103,540.2481 Q486.2665,540.2481 485.579,541.3263 Q484.8915,542.3888 484.8915,544.4825 Q484.8915,546.5763 485.579,547.6544 Q486.2665,548.7169 487.6103,548.7169 Q488.2353,548.7169 488.829,548.4513 Q489.4228,548.17 490.0478,547.5919 L490.0478,550.3106 Z " fill="#000000"/><text fill="#1F3864" font-family="sans-serif" font-size="14" font-weight="700" lengthAdjust="spacing" textLength="33.2158" x="507.579" y="549.5167">Grid</text><line style="stroke:#2E75B6;stroke-width:0.5;" x1="228.85" x2="787.0238" y1="560.67" y2="560.67"/><text fill="#000000" font-family="sans-serif" font-size="14" lengthAdjust="spacing" textLength="69.9863" x="233.85" y="577.6651">-rows : int</text><text fill="#000000" font-family="sans-serif" font-size="14" lengthAdjust="spacing" textLength="64.3672" x="233.85" y="593.962">-cols : int</text><text fill="#000000" font-family="sans-serif" font-size="14" lengthAdjust="spacing" textLength="200.0742" x="233.85" y="610.2589">-grid : vector&lt;vector&lt;int&gt;&gt;</text><line style="stroke:#2E75B6;stroke-width:1;" x1="228.85" x2="787.0238" y1="617.5606" y2="617.5606"/><text fill="#000000" font-family="sans-serif" font-size="14" lengthAdjust="spacing" textLength="185.1855" x="233.85" y="634.5557">+Grid(rows : int, cols : int)</text><text fill="#000000" font-family="sans-serif" font-size="14" lengthAdjust="spacing" textLength="224.4102" x="233.85" y="650.8526">+inBounds(pos : Position) : bool</text><text fill="#000000" font-family="sans-serif" font-size="14" lengthAdjust="spacing" textLength="235.1221" x="233.85" y="667.1495">+isWalkable(pos : Position) : bool</text><text fill="#000000" font-family="sans-serif" font-size="14" lengthAdjust="spacing" textLength="242.1357" x="233.85" y="683.4464">+setObstacle(pos : Position) : void</text><text fill="#000000" font-family="sans-serif" font-size="14" lengthAdjust="spacing" textLength="307.4736" x="233.85" y="699.7432">+print(start : Position, goal : Position) : void</text><text fill="#000000" font-family="sans-serif" font-size="14" lengthAdjust="spacing" textLength="548.1738" x="233.85" y="716.0401">+printWithPath(start : Position, goal : Position, path : vector&lt;Position&gt;) : void</text></g><!--class Pathfinder--><g class="entity" data-qualified-name="Pathfinder" data-source-line="37" id="ent0005"><rect fill="#F0F4FF" height="145.7813" rx="2.5" ry="2.5" style="stroke:#2E75B6;stroke-width:0.5;" width="603.623" x="556.12" y="305.89"/><ellipse cx="811.8593" cy="321.89" fill="#ADD1B2" rx="11" ry="11" style="stroke:#181818;stroke-width:1;"/><path d="M814.828,327.5306 Q814.2499,327.8275 813.6093,327.9681 Q812.9686,328.1244 812.2655,328.1244 Q809.7655,328.1244 808.4374,326.4838 Q807.1249,324.8275 807.1249,321.7025 Q807.1249,318.5775 808.4374,316.9213 Q809.7655,315.265 812.2655,315.265 Q812.9686,315.265 813.6093,315.4213 Q814.2655,315.5775 814.828,315.8744 L814.828,318.5931 Q814.203,318.015 813.6093,317.7494 Q813.0155,317.4681 812.3905,317.4681 Q811.0468,317.4681 810.3593,318.5463 Q809.6718,319.6088 809.6718,321.7025 Q809.6718,323.7963 810.3593,324.8744 Q811.0468,325.9369 812.3905,325.9369 Q813.0155,325.9369 813.6093,325.6713 Q814.203,325.39 814.828,324.8119 L814.828,327.5306 Z " fill="#000000"/><text fill="#1F3864" font-family="sans-serif" font-size="14" font-weight="700" lengthAdjust="spacing" textLength="83.6445" x="832.3593" y="326.7367">Pathfinder</text><line style="stroke:#2E75B6;stroke-width:0.5;" x1="557.12" x2="1158.743" y1="337.89" y2="337.89"/><text fill="#000000" font-family="sans-serif" font-size="14" lengthAdjust="spacing" textLength="86.3857" x="562.12" y="354.8851">-grid : Grid&amp;</text><line style="stroke:#2E75B6;stroke-width:1;" x1="557.12" x2="1158.743" y1="362.1869" y2="362.1869"/><text fill="#000000" font-family="sans-serif" font-size="14" lengthAdjust="spacing" textLength="165.4023" x="562.12" y="379.182">+Pathfinder(grid : Grid)</text><text fill="#000000" font-family="sans-serif" font-size="14" lengthAdjust="spacing" textLength="425.79" x="562.12" y="395.4789">+findPath(start : Position, goal : Position) : vector&lt;Position&gt;</text><text fill="#000000" font-family="sans-serif" font-size="14" lengthAdjust="spacing" textLength="348.9404" x="562.12" y="411.7757">-getNeighbours(pos : Position) : vector&lt;Position&gt;</text><text fill="#000000" font-family="sans-serif" font-size="14" lengthAdjust="spacing" textLength="271.8379" x="562.12" y="428.0726">-heuristic(a : Position, b : Position) : int</text><text fill="#000000" font-family="sans-serif" font-size="14" lengthAdjust="spacing" textLength="591.623" x="562.12" y="444.3695">-reconstructPath(cameFrom : unordered_map, current : Position) : vector&lt;Position&gt;</text></g><!--class TestPath--><g class="entity" data-qualified-name="TestPath" data-source-line="48" id="ent0006"><rect fill="#F0F4FF" height="80.5938" rx="2.5" ry="2.5" style="stroke:#2E75B6;stroke-width:0.5;" width="927.8652" x="7" y="148.29"/><ellipse cx="431.4639" cy="164.29" fill="#ADD1B2" rx="11" ry="11" style="stroke:#181818;stroke-width:1;"/><path d="M434.4326,169.9306 Q433.8545,170.2275 433.2139,170.3681 Q432.5732,170.5244 431.8701,170.5244 Q429.3701,170.5244 428.042,168.8837 Q426.7295,167.2275 426.7295,164.1025 Q426.7295,160.9775 428.042,159.3212 Q429.3701,157.665 431.8701,157.665 Q432.5732,157.665 433.2139,157.8212 Q433.8701,157.9775 434.4326,158.2744 L434.4326,160.9931 Q433.8076,160.415 433.2139,160.1494 Q432.6201,159.8681 431.9951,159.8681 Q430.6514,159.8681 429.9639,160.9462 Q429.2764,162.0087 429.2764,164.1025 Q429.2764,166.1962 429.9639,167.2744 Q430.6514,168.3369 431.9951,168.3369 Q432.6201,168.3369 433.2139,168.0712 Q433.8076,167.79 434.4326,167.2119 L434.4326,169.9306 Z " fill="#000000"/><text fill="#1F3864" font-family="sans-serif" font-size="14" font-weight="700" lengthAdjust="spacing" textLength="70.4375" x="451.9639" y="169.1367">TestPath</text><line style="stroke:#2E75B6;stroke-width:0.5;" x1="8" x2="933.8652" y1="180.29" y2="180.29"/><line style="stroke:#2E75B6;stroke-width:0.5;" x1="8" x2="933.8652" y1="188.29" y2="188.29"/><text fill="#000000" font-family="sans-serif" font-size="14" lengthAdjust="spacing" textLength="915.8652" x="13" y="205.2851">+runTest(name : string, rows : int, cols : int, start : Position, goal : Position, obstacles : vector&lt;Position&gt;, expectPath : bool) : bool</text><text fill="#000000" font-family="sans-serif" font-size="14" lengthAdjust="spacing" textLength="132.624" x="13" y="221.582">+runAllTests() : int</text></g><!--class main--><g class="entity" data-qualified-name="main" data-source-line="54" id="ent0007"><rect fill="#F0F4FF" height="64.2969" rx="2.5" ry="2.5" style="stroke:#2E75B6;stroke-width:0.5;" width="101.5029" x="420.18" y="7"/><ellipse cx="448.996" cy="23" fill="#ADD1B2" rx="11" ry="11" style="stroke:#181818;stroke-width:1;"/><path d="M451.9647,28.6406 Q451.3866,28.9375 450.746,29.0781 Q450.1053,29.2344 449.4022,29.2344 Q446.9022,29.2344 445.5741,27.5938 Q444.2616,25.9375 444.2616,22.8125 Q444.2616,19.6875 445.5741,18.0313 Q446.9022,16.375 449.4022,16.375 Q450.1053,16.375 450.746,16.5313 Q451.4022,16.6875 451.9647,16.9844 L451.9647,19.7031 Q451.3397,19.125 450.746,18.8594 Q450.1522,18.5781 449.5272,18.5781 Q448.1835,18.5781 447.496,19.6563 Q446.8085,20.7188 446.8085,22.8125 Q446.8085,24.9063 447.496,25.9844 Q448.1835,27.0469 449.5272,27.0469 Q450.1522,27.0469 450.746,26.7813 Q451.3397,26.5 451.9647,25.9219 L451.9647,28.6406 Z " fill="#000000"/><text fill="#1F3864" font-family="sans-serif" font-size="14" font-weight="700" lengthAdjust="spacing" textLength="38.8008" x="466.0662" y="27.8467">main</text><line style="stroke:#2E75B6;stroke-width:0.5;" x1="421.18" x2="520.6829" y1="39" y2="39"/><line style="stroke:#2E75B6;stroke-width:0.5;" x1="421.18" x2="520.6829" y1="47" y2="47"/><text fill="#000000" font-family="sans-serif" font-size="14" lengthAdjust="spacing" textLength="89.5029" x="426.18" y="63.9951">+main() : int</text></g><!--link Grid to Position--><g class="link" data-entity-1="ent0004" data-entity-2="ent0002" data-link-type="dependency" data-source-line="61" id="lnk8"><path codeLine="61" d="M622.47,723.52 C653.86,749.98 681.9521,773.6433 708.5421,796.0533" fill="none" id="Grid-to-Position" style="stroke:#2E75B6;stroke-width:1.5;stroke-dasharray:7,7;"/><polygon fill="#2E75B6" points="713.13,799.92,708.8259,791.0614,709.3067,796.6978,703.6704,797.1786,713.13,799.92" style="stroke:#2E75B6;stroke-width:1.5;"/><text fill="#000000" font-family="sans-serif" font-size="13" lengthAdjust="spacing" textLength="29.7832" x="677.93" y="766.4069">uses</text></g><!--link PositionHash to Position--><g class="link" data-entity-1="ent0003" data-entity-2="ent0002" data-link-type="dependency" data-source-line="64" id="lnk9"><path codeLine="64" d="M1009.82,658.6 C978.7,688.62 929.63,734.38 883.93,770.34 C871.24,780.33 862.2474,787.0065 848.6174,796.4765" fill="none" id="PositionHash-to-Position" style="stroke:#2E75B6;stroke-width:1.5;stroke-dasharray:7,7;"/><polygon fill="#2E75B6" points="843.69,799.9,853.3635,798.0497,847.7962,797.0471,848.7988,791.4798,843.69,799.9" style="stroke:#2E75B6;stroke-width:1.5;"/><text fill="#000000" font-family="sans-serif" font-size="13" lengthAdjust="spacing" textLength="45.9888" x="902.93" y="766.4069">hashes</text></g><!--reverse link Pathfinder to Grid--><g class="link" data-entity-1="ent0005" data-entity-2="ent0004" data-link-type="aggregation" data-source-line="67" id="lnk10"><path codeLine="67" d="M744.9821,458.9156 C710.9121,482.7856 682.26,502.86 645.99,528.27" fill="none" id="Pathfinder-backto-Grid" style="stroke:#2E75B6;stroke-width:1.5;"/><polygon fill="none" points="754.81,452.03,747.6008,452.1968,744.9821,458.9156,752.1912,458.7488,754.81,452.03" style="stroke:#2E75B6;stroke-width:1.5;"/><text fill="#000000" font-family="sans-serif" font-size="13" lengthAdjust="spacing" textLength="56.8813" x="703.93" y="494.7369">holds ref</text></g><!--link Pathfinder to Position--><g class="link" data-entity-1="ent0005" data-entity-2="ent0002" data-link-type="dependency" data-source-line="70" id="lnk11"><path codeLine="70" d="M849.8,452.01 C841.28,521.88 826.29,630.53 805.93,723.34 C800.32,748.93 794.1093,771.2607 787.0993,794.2607" fill="none" id="Pathfinder-to-Position" style="stroke:#2E75B6;stroke-width:1.5;stroke-dasharray:7,7;"/><polygon fill="#2E75B6" points="785.35,800,791.8001,792.5571,786.8077,795.2172,784.1476,790.2248,785.35,800" style="stroke:#2E75B6;stroke-width:1.5;"/><text fill="#000000" font-family="sans-serif" font-size="13" lengthAdjust="spacing" textLength="29.7832" x="839.93" y="630.5669">uses</text></g><!--link Pathfinder to PositionHash--><g class="link" data-entity-1="ent0005" data-entity-2="ent0003" data-link-type="dependency" data-source-line="73" id="lnk12"><path codeLine="73" d="M912.14,452.03 C947.44,499.07 988.1291,553.2906 1014.7791,588.8106" fill="none" id="Pathfinder-to-PositionHash" style="stroke:#2E75B6;stroke-width:1.5;stroke-dasharray:7,7;"/><polygon fill="#2E75B6" points="1018.38,593.61,1016.1783,584.0104,1015.3793,589.6105,1009.7791,588.8115,1018.38,593.61" style="stroke:#2E75B6;stroke-width:1.5;"/><text fill="#000000" font-family="sans-serif" font-size="13" lengthAdjust="spacing" textLength="29.7832" x="944.93" y="494.7369">uses</text></g><!--link TestPath to Grid--><g class="link" data-entity-1="ent0006" data-entity-2="ent0004" data-link-type="dependency" data-source-line="76" id="lnk13"><path codeLine="76" d="M473.15,229.14 C476.14,280.49 481.91,372.85 488.93,451.67 C491.15,476.54 493.2576,497.4256 495.9876,522.3856" fill="none" id="TestPath-to-Grid" style="stroke:#2E75B6;stroke-width:1.5;stroke-dasharray:7,7;"/><polygon fill="#2E75B6" points="496.64,528.35,499.6377,518.9684,496.0964,523.3796,491.6852,519.8383,496.64,528.35" style="stroke:#2E75B6;stroke-width:1.5;"/><text fill="#000000" font-family="sans-serif" font-size="13" lengthAdjust="spacing" textLength="48.3247" x="489.93" y="383.3469">creates</text></g><!--link TestPath to Pathfinder--><g class="link" data-entity-1="ent0006" data-entity-2="ent0005" data-link-type="dependency" data-source-line="77" id="lnk14"><path codeLine="77" d="M552.53,229.27 C597.99,251.38 650.614,276.9665 703.844,302.8465" fill="none" id="TestPath-to-Pathfinder" style="stroke:#2E75B6;stroke-width:1.5;stroke-dasharray:7,7;"/><polygon fill="#2E75B6" points="709.24,305.47,702.895,297.9374,704.7433,303.2837,699.3969,305.1321,709.24,305.47" style="stroke:#2E75B6;stroke-width:1.5;"/><text fill="#000000" font-family="sans-serif" font-size="13" lengthAdjust="spacing" textLength="48.3247" x="641.93" y="271.9569">creates</text></g><!--link TestPath to Position--><g class="link" data-entity-1="ent0006" data-entity-2="ent0002" data-link-type="dependency" data-source-line="78" id="lnk15"><path codeLine="78" d="M423.59,229.12 C317.43,322.45 79.55,560.81 209.93,723.34 C262.32,788.65 481.4608,821.2425 629.8308,836.3425" fill="none" id="TestPath-to-Position" style="stroke:#2E75B6;stroke-width:1.5;stroke-dasharray:7,7;"/><polygon fill="#2E75B6" points="635.8,836.95,627.2512,832.0593,630.8257,836.4438,626.4413,840.0182,635.8,836.95" style="stroke:#2E75B6;stroke-width:1.5;"/><text fill="#000000" font-family="sans-serif" font-size="13" lengthAdjust="spacing" textLength="29.7832" x="209.93" y="494.7369">uses</text></g><!--link main to TestPath--><g class="link" data-entity-1="ent0007" data-entity-2="ent0006" data-link-type="dependency" data-source-line="81" id="lnk16"><path codeLine="81" d="M470.93,71.77 C470.93,94.03 470.93,117.98 470.93,141.85" fill="none" id="main-to-TestPath" style="stroke:#2E75B6;stroke-width:1.5;stroke-dasharray:7,7;"/><polygon fill="#2E75B6" points="470.93,147.85,474.93,138.85,470.93,142.85,466.93,138.85,470.93,147.85" style="stroke:#2E75B6;stroke-width:1.5;"/><text fill="#000000" font-family="sans-serif" font-size="13" lengthAdjust="spacing" textLength="29.1104" x="471.93" y="114.3569">calls</text></g><?plantuml-src pLRTRjCm5BxFKrX2WbIqqmRRG1Mhj282tC349kroSfpJnAfhHxQp0HKI3y4JyYGSE_zPodQtHf5Qsz_vVBxpOyUikSoffXl213Nct5hDuyB2PwRa9Vy9v30mVKYafBsqFmIGfHB9S7L9sJhLgf39UoMK9i-Ym-WuYkx1b4v0Lv1N7zwSB4_7zga0Hz7hjwV77G3LMjtjilQBLnbdQmd6aAE3aywYoMYYxhXCoOeA0q7mWlpzynjVSg4Cjrp9QloqRs2iBfXjdTe619-N1AMHEU7ILcEcH6-iSj3KAdrs5YgRWSR5ccE2_sEbHF1hHFKdQZAoBsgzCzk1ed0IvWCr1WlqnlRqVDGysOiCzlJvWYvzAsNDN29D9tCpbyd-HEhWSt8B3DM_gtvmUR4e0RCgG8usREcc7QP91U5owLhIXBaoOnLHeSmr5MiQ2_W_pe3z6XjBsIZmLl6a0kOQVGWHgMq7D2Mfek81gsjkimjgiuUjfoH7N1keUdxHqFRg7R4hBl7m8NjH4nr_jlsykxG-xsUw1OSTK9raj_Aua4r6ebLl3lOBy3IBLQ77ocM7MGQ5viPo5jBUnl70lArk3NZ3b7tldMPq0v5M6mGLqjyEaDniQ8xbN6WDqZxaI3VBLs0yAzcZxczyQexoGhgvKA9oTvZXpIlJAHdlv2bvH2EegYlDI7oc1BxdK0QxQkT1MwC_vq8ubqnOvweRr0tbSb-FLkzR7LWt65Nm3GHrmJ0PpytJI77U-7kWC9YcvdfVuPSCjuRaHImuSuw3Nb46WSSU72nQwDoREfxUTSaDeLWlcvnAXxAgMGvwk05NXdCLMtiIPVXXv-WqhB0D9GD7vpm9EY0rcvLAvXKUqGEUlaQRuNTXcgd2Ugcjnex5BgKxEBsYEdQUK69BuAbXTf5wYvQuQKgcWLgexcWga-wM7CyfYb70zE08KJPex1otjt7FlARfhtUeTY7kI_OLpQWGxSaH-3c7Rupd9UGV?></g></svg>